Coordinates
version=1
nRows=19
nColumns=24
inDegrees=yes

Units are S.I. units (second, meters, Newtons, ...)
Angles are in degrees.

endheader
time	pelvis_tilt	pelvis_list	pelvis_rotation	pelvis_tx	pelvis_ty	pelvis_tz	hip_flexion_r	hip_adduction_r	hip_rotation_r	knee_angle_r	ankle_angle_r	subtalar_angle_r	mtp_angle_r	hip_flexion_l	hip_adduction_l	hip_rotation_l	knee_angle_l	ankle_angle_l	subtalar_angle_l	mtp_angle_l	lumbar_extension	lumbar_bending	lumbar_rotation
      5.30500000	     31.27559764	     11.48256029	     10.29941555	      1.59094910	      0.64167993	     -0.25323432	     -7.98082166	    -10.74724086	    -26.71788550	     -0.78604267	     10.59845409	     11.57786942	      0.00000000	    -51.37905064	      0.64796422	      7.37272202	    -15.17741862	     23.75685276	     19.90927828	      0.00000000	    -60.27372351	      0.47274481	     -8.12912246
      5.31000000	     31.50326654	     10.97445323	     10.44314821	      1.59834503	      0.64119752	     -0.25317357	     -7.80942606	    -10.24967325	    -25.49472693	     -2.25584256	     10.25771768	     11.13559063	      0.00000000	    -51.77275716	     -0.06413201	      7.16442321	    -16.05453510	     23.18465649	     20.05413173	      0.00000000	    -60.41394072	      1.10907322	     -7.81131758
      5.31500000	     31.71451704	     10.40838966	     10.54715443	      1.60578759	      0.64077064	     -0.25305598	     -7.55529063	     -9.69489656	    -24.21662938	     -3.89439519	      9.85340097	     10.66858276	      0.00000000	    -52.08060528	     -0.76119568	      6.90491347	    -17.05593413	     22.50219270	     20.14601470	      0.00000000	    -60.52872957	      1.74348699	     -7.44425838
      5.32000000	     31.90520374	      9.79611740	     10.55762792	      1.61328725	      0.64038111	     -0.25283539	     -7.20933049	     -9.09937628	    -22.79226538	     -5.67455088	      9.41231772	     10.19297694	      0.00000000	    -52.30708869	     -1.39483066	      6.55340643	    -18.16970624	     21.67606327	     20.25128887	      0.00000000	    -60.61896479	      2.31649431	     -6.98128489
      5.32500000	     32.05431427	      9.16802313	     10.48095358	      1.62076452	      0.63999986	     -0.25252870	     -6.72891054	     -8.50722021	    -21.34094951	     -7.63599092	      8.95746060	      9.72918540	      0.00000000	    -52.42165989	     -1.94193903	      6.06772386	    -19.40467758	     20.75980175	     20.32487210	      0.00000000	    -60.68876966	      2.82487130	     -6.48842772
      5.33000000	     32.18801415	      8.53890891	     10.55827067	      1.62838720	      0.63974862	     -0.25226818	     -6.33480914	     -7.84354515	    -20.14321660	     -9.54569089	      8.49225004	      9.19435555	      0.00000000	    -52.41791100	     -2.58593679	      5.76823170	    -20.82357746	     19.68660464	     20.21262363	      0.00000000	    -60.71252222	      3.42658054	     -6.07517254
      5.33500000	     32.29639317	      7.88496783	     10.41216024	      1.63599321	      0.63946992	     -0.25184247	     -5.79628612	     -7.19013384	    -18.75085368	    -11.60883986	      8.01940317	      8.70054937	      0.00000000	    -52.35351755	     -3.05844524	      5.20165157	    -22.29358063	     18.48752830	     20.19788598	      0.00000000	    -60.72884021	      3.87506570	     -5.55633445
      5.34000000	     32.39748781	      7.27200226	     10.38305946	      1.64366562	      0.63930203	     -0.25143014	     -5.36380704	     -6.52553378	    -17.66681659	    -13.57348147	      7.63043676	      8.23924285	      0.00000000	    -52.16250885	     -3.58293463	      4.73617265	    -23.96189078	     17.13765448	     20.01588887	      0.00000000	    -60.73263307	      4.35672309	     -5.14857083
      5.34500000	     32.44675426	      6.68982392	     10.17992533	      1.65134052	      0.63911606	     -0.25083518	     -4.83086354	     -5.91853687	    -16.57409341	    -15.60116984	      7.36223170	      7.84126805	      0.00000000	    -51.86060592	     -3.94728429	      4.07698699	    -25.71277255	     15.60134062	     19.92881250	      0.00000000	    -60.70355849	      4.65585797	     -4.68104880
      5.35000000	     32.51380467	      6.14547195	     10.10279953	      1.65907071	      0.63904868	     -0.25034362	     -4.44768673	     -5.30919015	    -15.75547870	    -17.49628265	      7.19572309	      7.43685780	      0.00000000	    -51.47312024	     -4.37440403	      3.54789171	    -27.60610849	     13.96124803	     19.64962254	      0.00000000	    -60.67295905	      5.03189662	     -4.32962196
      5.35500000	     32.58394705	      5.64721302	     10.04971641	      1.66681171	      0.63905971	     -0.24985428	     -4.15329582	     -4.73581502	    -15.12334768	    -19.29163457	      7.17425458	      7.10321387	      0.00000000	    -50.99902616	     -4.79450007	      2.99706356	    -29.60524502	     12.19298674	     19.27387874	      0.00000000	    -60.64384371	      5.38288789	     -4.02922104
      5.36000000	     32.69696943	      5.18540101	     10.08908216	      1.67456875	      0.63919049	     -0.24947798	     -4.02835843	     -4.17792200	    -14.72989696	    -20.93767182	      7.28918020	      6.83345073	      0.00000000	    -50.47927558	     -5.26315056	      2.51382305	    -31.69397541	     10.33370628	     18.75463620	      0.00000000	    -60.63752043	      5.80000014	     -3.82304433
      5.36500000	     32.83063416	      4.75801259	     10.17235188	      1.68232595	      0.63941901	     -0.24905767	     -4.03887267	     -3.63287566	    -14.54040084	    -22.41717984	      7.54898671	      6.59931823	      0.00000000	    -49.89323363	     -5.77653463	      1.95252731	    -33.85543400	      8.39778640	     18.10447591	      0.00000000	    -60.65001551	      6.18780872	     -3.67404380
      5.37000000	     32.92702434	      4.35983089	     10.22264256	      1.69005555	      0.63967039	     -0.24865279	     -4.06607992	     -3.12967003	    -14.40043524	    -23.80531297	      7.96642311	      6.36747258	      0.00000000	    -49.19148618	     -6.23051140	      1.39887197	    -36.07621542	      6.42373668	     17.29768262	      0.00000000	    -60.62630016	      6.53250092	     -3.50307950
      5.37500000	     33.00574875	      3.98439864	     10.27996643	      1.69774244	      0.63997499	     -0.24827596	     -4.16327549	     -2.65129018	    -14.37303034	    -25.04745507	      8.52631982	      6.17008571	      0.00000000	    -48.39161585	     -6.67782908	      0.83161318	    -38.34555181	      4.46798287	     16.33447123	      0.00000000	    -60.58578133	      6.86632353	     -3.35268665
      5.38000000	     33.06185050	      3.63842194	     10.36512641	      1.70539384	      0.64033290	     -0.24792055	     -4.32040985	     -2.19529903	    -14.41551118	    -26.16023867	      9.20566093	      6.01342386	      0.00000000	    -47.49857342	     -7.12763443	      0.29163660	    -40.63593711	      2.57597084	     15.18944428	      0.00000000	    -60.51638667	      7.18881184	     -3.21334707
      5.38500000	     32.94119786	      3.43903576	     10.44325347	      1.71286823	      0.64064704	     -0.24755953	     -4.33873350	     -1.94525073	    -14.54563180	    -27.22588434	     10.10784075	      5.96736293	      0.00000000	    -46.29975187	     -7.41982038	     -0.10444808	    -43.02052332	      0.80534008	     13.85419948	      0.00000000	    -60.31185498	      7.36456287	     -3.17446987
      5.39000000	     33.03673787	      3.03509620	     10.58221323	      1.72051754	      0.64117632	     -0.24725021	     -4.73645361	     -1.37076432	    -14.71035008	    -27.96109799	     10.88346498	      5.80138191	      0.00000000	    -45.36583966	     -7.99655773	     -0.71738761	    -45.25117942	     -0.80703344	     12.46578921	      0.00000000	    -60.25078610	      7.76655097	     -3.00054793
      5.39500000	     32.98237804	      2.83636877	     10.79075155	      1.72790772	      0.64170640	     -0.24700120	     -5.04621600	     -1.05073613	    -15.00720093	    -28.64114640	     11.86797042	      5.83799730	      0.00000000	    -44.13944915	     -8.40509523	     -1.03582803	    -47.56771219	     -2.20851562	     10.84835486	      0.00000000	    -60.09099305	      8.03301484	     -2.99520995
